/* XPM */
static char * image_curve_v_grad_226_xpm[] = {
"15 226 256 2",
"  	c #888888",
". 	c #868686",
"+ 	c #7E7E7E",
"@ 	c #C4C4C4",
"# 	c #FFFFFF",
"$ 	c #666666",
"% 	c #353535",
"& 	c #282828",
"* 	c #242424",
"= 	c #262626",
"- 	c #2B2B2B",
"; 	c #A1A1A1",
"> 	c #414141",
", 	c #000000",
"' 	c #1B1B1B",
") 	c #252525",
"! 	c #222222",
"~ 	c #191919",
"{ 	c #7C7C7C",
"] 	c #2E2E2E",
"^ 	c #151515",
"/ 	c #C6C6C6",
"( 	c #E9E9E9",
"_ 	c #0B0B0B",
": 	c #6A6A6A",
"< 	c #2C2C2C",
"[ 	c #181818",
"} 	c #D9D9D9",
"| 	c #D7D7D7",
"1 	c #0E0E0E",
"2 	c #686868",
"3 	c #D8D8D8",
"4 	c #FEFEFE",
"5 	c #D6D6D6",
"6 	c #FDFDFD",
"7 	c #D5D5D5",
"8 	c #FCFCFC",
"9 	c #D4D4D4",
"0 	c #FBFBFB",
"a 	c #D3D3D3",
"b 	c #0D0D0D",
"c 	c #2D2D2D",
"d 	c #FAFAFA",
"e 	c #D2D2D2",
"f 	c #171717",
"g 	c #F9F9F9",
"h 	c #F8F8F8",
"i 	c #D1D1D1",
"j 	c #F7F7F7",
"k 	c #D0D0D0",
"l 	c #F6F6F6",
"m 	c #CFCFCF",
"n 	c #F5F5F5",
"o 	c #F4F4F4",
"p 	c #CDCDCD",
"q 	c #696969",
"r 	c #F3F3F3",
"s 	c #CCCCCC",
"t 	c #0C0C0C",
"u 	c #CECECE",
"v 	c #161616",
"w 	c #F2F2F2",
"x 	c #F1F1F1",
"y 	c #F0F0F0",
"z 	c #CACACA",
"A 	c #EFEFEF",
"B 	c #C9C9C9",
"C 	c #CBCBCB",
"D 	c #EEEEEE",
"E 	c #C8C8C8",
"F 	c #EDEDED",
"G 	c #C7C7C7",
"H 	c #ECECEC",
"I 	c #EBEBEB",
"J 	c #EAEAEA",
"K 	c #C5C5C5",
"L 	c #E8E8E8",
"M 	c #E7E7E7",
"N 	c #C3C3C3",
"O 	c #E6E6E6",
"P 	c #E5E5E5",
"Q 	c #C0C0C0",
"R 	c #0A0A0A",
"S 	c #2F2F2F",
"T 	c #C2C2C2",
"U 	c #E4E4E4",
"V 	c #BFBFBF",
"W 	c #141414",
"X 	c #C1C1C1",
"Y 	c #E3E3E3",
"Z 	c #E2E2E2",
"` 	c #BEBEBE",
" .	c #E1E1E1",
"..	c #BDBDBD",
"+.	c #E0E0E0",
"@.	c #BCBCBC",
"#.	c #6B6B6B",
"$.	c #DFDFDF",
"%.	c #BBBBBB",
"&.	c #DEDEDE",
"*.	c #BABABA",
"=.	c #090909",
"-.	c #131313",
";.	c #DDDDDD",
">.	c #DCDCDC",
",.	c #B9B9B9",
"'.	c #DBDBDB",
").	c #B8B8B8",
"!.	c #303030",
"~.	c #DADADA",
"{.	c #B7B7B7",
"].	c #B6B6B6",
"^.	c #B4B4B4",
"/.	c #080808",
"(.	c #121212",
"_.	c #B2B2B2",
":.	c #6C6C6C",
"<.	c #B3B3B3",
"[.	c #B1B1B1",
"}.	c #B0B0B0",
"|.	c #313131",
"1.	c #AFAFAF",
"2.	c #AEAEAE",
"3.	c #070707",
"4.	c #111111",
"5.	c #ADADAD",
"6.	c #ACACAC",
"7.	c #AAAAAA",
"8.	c #A9A9A9",
"9.	c #6D6D6D",
"0.	c #ABABAB",
"a.	c #A8A8A8",
"b.	c #060606",
"c.	c #101010",
"d.	c #A7A7A7",
"e.	c #A6A6A6",
"f.	c #323232",
"g.	c #A5A5A5",
"h.	c #A4A4A4",
"i.	c #A3A3A3",
"j.	c #0F0F0F",
"k.	c #050505",
"l.	c #6E6E6E",
"m.	c #A2A2A2",
"n.	c #A0A0A0",
"o.	c #9F9F9F",
"p.	c #9D9D9D",
"q.	c #9E9E9E",
"r.	c #9C9C9C",
"s.	c #040404",
"t.	c #333333",
"u.	c #9B9B9B",
"v.	c #999999",
"w.	c #9A9A9A",
"x.	c #B5B5B5",
"y.	c #979797",
"z.	c #6F6F6F",
"A.	c #969696",
"B.	c #030303",
"C.	c #989898",
"D.	c #959595",
"E.	c #939393",
"F.	c #343434",
"G.	c #949494",
"H.	c #919191",
"I.	c #909090",
"J.	c #020202",
"K.	c #929292",
"L.	c #8F8F8F",
"M.	c #8D8D8D",
"N.	c #707070",
"O.	c #8B8B8B",
"P.	c #8A8A8A",
"Q.	c #898989",
"R.	c #010101",
"S.	c #878787",
"T.	c #858585",
"U.	c #717171",
"V.	c #838383",
"W.	c #828282",
"X.	c #848484",
"Y.	c #363636",
"Z.	c #818181",
"`.	c #808080",
" +	c #7F7F7F",
".+	c #7D7D7D",
"++	c #727272",
"@+	c #7A7A7A",
"#+	c #7B7B7B",
"$+	c #787878",
"%+	c #373737",
"&+	c #797979",
"*+	c #777777",
"=+	c #8E8E8E",
"-+	c #757575",
";+	c #8C8C8C",
">+	c #747474",
",+	c #737373",
"'+	c #383838",
")+	c #676767",
"!+	c #656565",
"~+	c #393939",
"{+	c #646464",
"]+	c #767676",
"^+	c #626262",
"/+	c #636363",
"(+	c #606060",
"_+	c #5E5E5E",
":+	c #5F5F5F",
"<+	c #3A3A3A",
"[+	c #5D5D5D",
"}+	c #5B5B5B",
"|+	c #5A5A5A",
"1+	c #585858",
"2+	c #595959",
"3+	c #575757",
"4+	c #555555",
"5+	c #565656",
"6+	c #535353",
"7+	c #525252",
"8+	c #3B3B3B",
"9+	c #545454",
"0+	c #515151",
"a+	c #505050",
"b+	c #616161",
"c+	c #4F4F4F",
"d+	c #4D4D4D",
"e+	c #4E4E4E",
"f+	c #4C4C4C",
"g+	c #5C5C5C",
"h+	c #494949",
"i+	c #3C3C3C",
"j+	c #4B4B4B",
"k+	c #484848",
"l+	c #474747",
"m+	c #454545",
"n+	c #444444",
"o+	c #434343",
"p+	c #3D3D3D",
"q+	c #424242",
"r+	c #404040",
"s+	c #3E3E3E",
"t+	c #4A4A4A",
"u+	c #464646",
"v+	c #3F3F3F",
"w+	c #2A2A2A",
"x+	c #292929",
"y+	c #272727",
"z+	c #232323",
"A+	c #212121",
"B+	c #202020",
"C+	c #1F1F1F",
"D+	c #1E1E1E",
"E+	c #1D1D1D",
"F+	c #1A1A1A",
"G+	c #1C1C1C",
"                      . + @ # ",
"  $ % & * = = = = = * = - ; # ",
"  > , ' ) ! ! ! ! ! ) ~ , { # ",
"  ] ^ / # ( ( ( ( ( # @ _ : # ",
"  < [ } # # # # # # # | 1 2 # ",
"  < [ } # # # # # # # | 1 2 # ",
"  < [ 3 # 4 4 4 4 4 # 5 1 2 # ",
"  < [ | # 4 6 6 6 6 # 7 1 2 # ",
"  < [ | # 6 6 6 6 6 # 7 1 2 # ",
"  < [ 5 # 8 8 8 8 8 # 9 1 2 # ",
"  < [ 5 # 0 0 0 0 0 # 9 1 2 # ",
"  < [ 7 # 0 0 0 0 0 # a b 2 # ",
"  c [ 9 # 0 0 0 d d # e b 2 # ",
"  c f 9 # d d d d g # e b 2 # ",
"  c f 9 # g h h g g # e b 2 # ",
"  c f a # h h h h h # i b 2 # ",
"  c f e # j j j j j # k b 2 # ",
"  c f e # j j j j j # k b 2 # ",
"  c f i # l l l l l # m b 2 # ",
"  c f k # n o o o o # p b q # ",
"  c f m # o r r r o # s t q # ",
"  c f u # o r r r o # s t q # ",
"  c v u # r w w w w # s t q # ",
"  c v p # w x w w x # s t q # ",
"  c v p # x x y y x # z t q # ",
"  ] v s # y y A A y # B t q # ",
"  ] v C # A A D D A # E t q # ",
"  ] v z # F D D D D # E t q # ",
"  ] v B # F F F F F # G t q # ",
"  ] ^ G # H H I I H # / _ q # ",
"  ] ^ E # I J J I I # K _ : # ",
"  ] ^ E # J J I I J # K _ : # ",
"  ] ^ / # ( ( ( ( L 4 @ _ : # ",
"  ] ^ / 4 L L L L M 4 @ _ : # ",
"  ] ^ K 6 M M L L M 6 N _ : # ",
"  ] ^ N 8 O P P O O 0 Q R : # ",
"  S ^ T 0 P U U P O d V R : # ",
"  S W T g U U P P U g Q R : # ",
"  S W X h Y Y Y Y Z j ` R : # ",
"  S W Q j Z Z Z Z  .l ..R : # ",
"  S W V l +. . . . .l @.R #.# ",
"  S W ` o $.+.+.+.+.o %.R #.# ",
"  S W ..r &.$.$.$.$.r *.=.#.# ",
"  S -.@.w ;.;.&.&.;.w *.=.#.# ",
"  S -.%.x >.>.;.;.>.x ,.=.#.# ",
"  S -.*.A '.>.>.>.'.A ).=.#.# ",
"  !.-.,.D ~.~.~.~.~.D {.=.#.# ",
"  !.-.).F } 3 3 } } F ].=.#.# ",
"  !.-.].H 3 | | 3 3 H ^./.#.# ",
"  !.-.].I 5 | | | 5 I ^./.#.# ",
"  !.-.].( 7 5 5 5 7 ( ^./.#.# ",
"  !.(.^.L 9 9 9 9 a M _./.:.# ",
"  !.(.<.O e a a a e O [./.:.# ",
"  !.(._.P i e e i e O }./.:.# ",
"  |.(.}.Y k i i k k U 1./.:.# ",
"  |.(.}.Z m m m m m Z 2.3.:.# ",
"  |.4.1. .u u m m u  .5.3.:.# ",
"  |.4.1. .u u m m u  .5.3.:.# ",
"  |.4.2. .u p p u u  .6.3.:.# ",
"  |.4.5.$.s s s s s $.7.3.:.# ",
"  |.4.6.&.C C C z z ;.8.3.9.# ",
"  |.4.0.;.z z z B B >.a.b.9.# ",
"  |.4.7.'.E E E E E '.a.b.9.# ",
"  |.c.8.~.G G G G G ~.d.b.9.# ",
"  |.c.a.} / / / / / } e.b.9.# ",
"  f.c.d.| @ @ K K @ | g.b.9.# ",
"  f.c.g.7 N N N N N 5 h.b.9.# ",
"  f.c.i.9 T T T X X 9 i.b.9.# ",
"  f.j.i.e Q Q X X X a ; k.l.# ",
"  f.j.m.i V V Q Q Q i n.k.l.# ",
"  f.j.; m ....` ` ` k o.k.l.# ",
"  f.j.o.u @.@.@.@.@.u p.k.l.# ",
"  f.j.q.s *.@.%.*.*.s r.s.l.# ",
"  t.j.q.C ,.*.*.,.,.C r.s.l.# ",
"  t.1 p.z ).).).).).z u.s.l.# ",
"  t.1 u.B ).].].{.{.E v.s.l.# ",
"  t.1 w.G ].x.x.].]./ y.s.z.# ",
"  t.1 v.K ^.^.^.^.x.K A.B.z.# ",
"  t.1 C.N _.<.<._.<.@ D.B.z.# ",
"  t.b y.T [._._.[.[.T D.B.z.# ",
"  t.b A.T [.}.[.[.}.Q E.B.z.# ",
"  F.b G.V 1.1.1.1.2.` H.B.z.# ",
"  F.b E.` 5.2.2.5.5...I.J.z.# ",
"  F.b K.@.0.6.6.6.6.@.L.J.z.# ",
"  F.t H.%.0.7.7.7.0.%.L.J.z.# ",
"  F.t I.*.7.8.8.8.7.,.M.J.N.# ",
"  F.t L.).a.d.d.d.a.{.O.J.N.# ",
"  F.t M.].e.e.e.e.e.].P.J.N.# ",
"  % _ O.^.g.g.g.g.g.^.Q.R.N.# ",
"  % _ Q._.i.i.i.i.i._.  R.N.# ",
"  % _   [.m.m.m.m.m.[.S.R.N.# ",
"  % _ S.1.n.n.n.n.n.1.T.R.U.# ",
"  % _ T.5.o.o.o.o.o.5.V., U.# ",
"  % R T.6.p.q.q.q.q.6.W., U.# ",
"  % R X.7.u.r.r.r.r.0.W., U.# ",
"  Y.R W.a.w.w.w.w.u.7.Z., U.# ",
"  Y.R Z.d.v.v.v.v.v.a.`., U.# ",
"  Y.R  +g.y.y.C.C.y.e.+ , U.# ",
"  Y.=. +h.A.A.y.y.A.h..+, U.# ",
"  Y.=.+ i.D.D.D.D.D.i.{ , ++# ",
"  Y.=.{ ; E.E.E.E.E.; @+, ++# ",
"  Y.=.#+n.K.K.K.K.K.o.$+, ++# ",
"  %+=.&+q.H.H.H.H.H.q.*+, ++# ",
"  %+/.&+p.L.=+=+L.L.r.*+, ++# ",
"  %+/.$+u.=+M.M.M.M.w.-+, ++# ",
"  %+/.-+v.;+;+;+O.O.v.>+, ++# ",
"  %+/.>+y.P.P.P.P.P.y.++, ,+# ",
"  %+3.,+D.          D.U., ,+# ",
"  %+3.++G.S.S.S.S.S.G.U., ,+# ",
"  %+3.U.E.. . . . . E.z., ,+# ",
"  '+3.z.I.X.X.X.X.X.I.9., ,+# ",
"  '+3.l.L.W.W.V.V.W.L.:., ,+# ",
"  '+3.9.=+Z.Z.Z.Z.Z.=+#., ,+# ",
"  '+b.:.;+`.`. + +`.;+: , >+# ",
"  '+b.#.P.+ + + +  +O.q , >+# ",
"  '+b.q Q..+.++ + .+Q.)+, >+# ",
"  '+b.)+S.{ #+{ { #+. !+, >+# ",
"  ~+b.)+T.@+@+@+@+@+T.!+, >+# ",
"  ~+k.$ X.&+&+&+&+$+X.{+, >+# ",
"  ~+k.{+W.*+*+*+*+]+W.^+, >+# ",
"  ~+k./+Z.]+]+]+]+-+`.(+, -+# ",
"  ~+k.^+ +>+>+-+-+>++ _+, -+# ",
"  ~+s.(+.+,+,+,+++++.+:+, -+# ",
"  <+s._+#+U.++U.N.U.{ [+, -+# ",
"  <+s.[+&+z.N.N.z.N.@+}+, -+# ",
"  <+s.[+&+l.l.l.l.z.&+|+, -+# ",
"  <+s.}+*+:.:.:.:.9.*+1+, -+# ",
"  <+B.|+-+#.#.#.#.#.-+1+, -+# ",
"  <+B.2+>+: : : q q ,+3+, ]+# ",
"  <+B.3+++2 2 )+)+2 ++4+, ]+# ",
"  <+B.5+N.$ )+)+$ )+N.6+, ]+# ",
"  <+B.4+z.!+!+!+!+!+l.7+, ]+# ",
"  8+J.9+9./+/+{+{+/+:.0+, ]+# ",
"  8+J.7+#.^+^+/+/+^+#.a+, ]+# ",
"  8+J.0+: (+b+^+^+b+: c+, ]+# ",
"  8+J.c+2 (+(+(+(+:+2 d+, *+# ",
"  8+J.e+)+:+_+_+_+_+)+f+, *+# ",
"  8+R.d+!+[+g+g+g+g+!+f+, *+# ",
"  8+R.f+{+}+}+}+}+}+/+h+, *+# ",
"  i+R.j+^+|+|+|+|+|+^+k+, *+# ",
"  i+R.h+(+1+1+1+1+1+(+l+, *+# ",
"  i+R.k+:+3+3+5+5+3+:+m+, *+# ",
"  i+, l+[+4+4+4+4+4+[+m+, $+# ",
"  i+, m+}+9+9+9+9+9+g+n+, $+# ",
"  i+, n+|+6+6+6+6+7+|+o+, $+# ",
"  i+, o+2+0+0+0+0+a+1+> , $+# ",
"  p+, q+1+a+c+c+a+a+1+r+, $+# ",
"  p+, q+3+c+e+e+e+c+3+r+, $+# ",
"  p+, r+9+d+d+f+f+d+9+s+, $+# ",
"  p+, s+7+j+f+f+j+j+6+p+, $+# ",
"  p+, p+0+t+j+j+j+t+0+i+, $+# ",
"  p+, i+a+h+h+h+h+h+a+<+, &+# ",
"  p+, i+c+k+k+k+l+l+e+~+, &+# ",
"  p+, 8+e+l+l+l+u+u+f+%+, &+# ",
"  s+, ~+j+m+m+m+m+m+j+%+, &+# ",
"  s+, %+h+o+n+n+n+n+t+Y., &+# ",
"  s+, Y.l+> o+o+o+q+k+F., &+# ",
"  s+, Y.l+> r+r+r+> l+t., @+# ",
"  s+, F.m+v+v+s+s+v+n+|., @+# ",
"  s+, f.o+p+s+s+p+s+o+!., @+# ",
"  s+, |.q+i+p+p+i+p+q+S , @+# ",
"  s+, !.> 8+8+8+8+8+> ] , @+# ",
"  v+, !.v+<+<+<+<+<+v+] , @+# ",
"  v+, S s+~+~+~+~+~+s+c , @+# ",
"  v+, c i+%+%+%+%+'+p+- , @+# ",
"  v+, < 8+Y.Y.Y.Y.%+i+w+, @+# ",
"  v+, < 8+% % Y.Y.% <+w+, @+# ",
"  v+, w+~+F.t.F.F.t.'+& , #+# ",
"  v+, x+%+t.t.f.f.t.%+y+, #+# ",
"  v+, x+%+t.t.f.f.t.%+y+, #+# ",
"  v+, x+%+f.f.|.|.f.Y.= , #+# ",
"  v+, & % !.!.!.!.!.% ) , #+# ",
"  r+, y+F.S S S S S t.z+, #+# ",
"  r+, ) f.] ] S S ] f.! , #+# ",
"  r+, * |.c c c c c |.! , #+# ",
"  r+, z+S - - - - - !.! , #+# ",
"  r+, ! ] w+w+w+w+w+S A+, #+# ",
"  r+, B+c w+x+x+x+x+c C+, { # ",
"  r+, C+- & & & & & < D+, { # ",
"  r+, D+w+y+y+y+y+y+- E+, { # ",
"  r+, D+x+) ) = = ) & ' , { # ",
"  > , D+& * * ) ) * y+' , { # ",
"  > , E+y+z+z+* * z+= F+, { # ",
"  > , ' ) ! ! ! ! ! ) ~ , { # ",
"  > , F+* A+A+A+A+A+* [ , { # ",
"  > , ~ z+B+B+B+B+B+* [ , { # ",
"  > , [ ! C+C+C+C+C+! v , .+# ",
"  > , f B+D+D+D+D+D+B+^ , .+# ",
"  > , v C+G+G+G+G+G+C+^ , .+# ",
"  > , v C+G+G+G+G+G+C+W , .+# ",
"  > , ^ D+' ' ' ' ' D+-., .+# ",
"  q+, -.' ~ ~ ~ ~ ~ ' 4., .+# ",
"  q+, (.F+[ [ [ [ [ F+c., .+# ",
"  q+, (.F+[ [ [ [ [ F+j., .+# ",
"  q+, (.~ v v v v v [ j., .+# ",
"  q+, 4.[ ^ ^ ^ ^ ^ [ j., .+# ",
"  q+, j.v ^ ^ ^ W W v b , + # ",
"  q+, 1 ^ W W W -.-.^ t , + # ",
"  q+, b W -.-.-.(.(.W t , + # ",
"  q+, b W (.(.(.(.(.W _ , + # ",
"  q+, t -.4.4.4.4.4.-.R , + # ",
"  o+, _ (.c.c.c.c.c.(.=., + # ",
"  o+, _ 4.j.1 1 1 j.4.=., + # ",
"  o+, R j.1 1 1 1 1 j./., + # ",
"  o+, =.1 b b b b b 1 3., + # ",
"  o+, /.1 b b t t b b k., + # ",
"  o+, 3.b t t _ _ t b k., + # ",
"  o+, b._ _ _ _ _ R _ s.,  +# ",
"  o+, b._ R R R R =.R s.,  +# ",
"  o+, b.R =.=.=.=.=.R B.,  +# ",
"  o+, k.=./././././.=.B.,  +# ",
"  o+, s./.3.3.3.3././.J.,  +# ",
"  o+, s./.3.3.3.3.b.3.J.,  +# ",
"  o+, B.3.b.b.b.b.k.b.R.,  +# ",
"  o+, B.b.k.k.k.k.k.k., ,  +# ",
"  n+, R.s.s.k.k.s.k.k., ,  +# ",
"  n+, , s.s.s.s.s.s.s., ,  +# ",
"  n+, , B.B.B.B.B.B.B., ,  +# ",
"  n+, , B.B.J.J.B.B.B., ,  +# ",
"  n+, , J.J.R.R.J.J.J., ,  +# ",
"  n+, , R.R., , R.R.R., ,  +# ",
"  n+, , R., , , , , , , , `.# ",
"  n+, , , , , , , , , , , `.# ",
"  n+, , , , , , , , , , , `.# ",
"  `.]+*+*+*+*+*+*+*+*+-+#.%.# ",
"  @ # # # # # # # # # # # # # "};
