/* XPM */
static char * image_curve_h_grad_226_xpm[] = {
"226 15 256 2",
"  	c #888888",
". 	c #878787",
"+ 	c #7C7C7C",
"@ 	c #BFBFBF",
"# 	c #FFFFFF",
"$ 	c #646464",
"% 	c #444444",
"& 	c #434343",
"* 	c #424242",
"= 	c #414141",
"- 	c #404040",
"; 	c #3F3F3F",
"> 	c #3E3E3E",
", 	c #3D3D3D",
"' 	c #3C3C3C",
") 	c #3B3B3B",
"! 	c #3A3A3A",
"~ 	c #393939",
"{ 	c #383838",
"] 	c #373737",
"^ 	c #363636",
"/ 	c #353535",
"( 	c #343434",
"_ 	c #333333",
": 	c #323232",
"< 	c #313131",
"[ 	c #303030",
"} 	c #2F2F2F",
"| 	c #2E2E2E",
"1 	c #2D2D2D",
"2 	c #2C2C2C",
"3 	c #9D9D9D",
"4 	c #000000",
"5 	c #010101",
"6 	c #020202",
"7 	c #030303",
"8 	c #040404",
"9 	c #050505",
"0 	c #060606",
"a 	c #070707",
"b 	c #080808",
"c 	c #090909",
"d 	c #0A0A0A",
"e 	c #0B0B0B",
"f 	c #0C0C0C",
"g 	c #0D0D0D",
"h 	c #0E0E0E",
"i 	c #0F0F0F",
"j 	c #101010",
"k 	c #111111",
"l 	c #121212",
"m 	c #131313",
"n 	c #141414",
"o 	c #151515",
"p 	c #161616",
"q 	c #171717",
"r 	c #181818",
"s 	c #6D6D6D",
"t 	c #191919",
"u 	c #1A1A1A",
"v 	c #1B1B1B",
"w 	c #1D1D1D",
"x 	c #1E1E1E",
"y 	c #1F1F1F",
"z 	c #202020",
"A 	c #222222",
"B 	c #232323",
"C 	c #242424",
"D 	c #252525",
"E 	c #272727",
"F 	c #282828",
"G 	c #292929",
"H 	c #2A2A2A",
"I 	c #454545",
"J 	c #474747",
"K 	c #484848",
"L 	c #494949",
"M 	c #4B4B4B",
"N 	c #4C4C4C",
"O 	c #4D4D4D",
"P 	c #4E4E4E",
"Q 	c #4F4F4F",
"R 	c #515151",
"S 	c #525252",
"T 	c #545454",
"U 	c #555555",
"V 	c #565656",
"W 	c #575757",
"X 	c #595959",
"Y 	c #5A5A5A",
"Z 	c #5B5B5B",
"` 	c #5D5D5D",
" .	c #5E5E5E",
"..	c #606060",
"+.	c #626262",
"@.	c #636363",
"#.	c #666666",
"$.	c #676767",
"%.	c #696969",
"&.	c #6B6B6B",
"*.	c #6C6C6C",
"=.	c #6E6E6E",
"-.	c #6F6F6F",
";.	c #717171",
">.	c #727272",
",.	c #737373",
"'.	c #747474",
").	c #757575",
"!.	c #787878",
"~.	c #797979",
"{.	c #7B7B7B",
"].	c #7E7E7E",
"^.	c #7F7F7F",
"/.	c #818181",
"(.	c #828282",
"_.	c #848484",
":.	c #858585",
"<.	c #898989",
"[.	c #8B8B8B",
"}.	c #8D8D8D",
"|.	c #8F8F8F",
"1.	c #909090",
"2.	c #919191",
"3.	c #929292",
"4.	c #939393",
"5.	c #949494",
"6.	c #969696",
"7.	c #979797",
"8.	c #989898",
"9.	c #999999",
"0.	c #9A9A9A",
"a.	c #9B9B9B",
"b.	c #9E9E9E",
"c.	c #9F9F9F",
"d.	c #A1A1A1",
"e.	c #A2A2A2",
"f.	c #A3A3A3",
"g.	c #A5A5A5",
"h.	c #A7A7A7",
"i.	c #A8A8A8",
"j.	c #A9A9A9",
"k.	c #AAAAAA",
"l.	c #ABABAB",
"m.	c #ACACAC",
"n.	c #ADADAD",
"o.	c #AEAEAE",
"p.	c #AFAFAF",
"q.	c #B0B0B0",
"r.	c #B2B2B2",
"s.	c #B3B3B3",
"t.	c #B4B4B4",
"u.	c #B6B6B6",
"v.	c #B8B8B8",
"w.	c #B9B9B9",
"x.	c #BABABA",
"y.	c #BBBBBB",
"z.	c #BCBCBC",
"A.	c #BDBDBD",
"B.	c #BEBEBE",
"C.	c #C0C0C0",
"D.	c #C1C1C1",
"E.	c #C2C2C2",
"F.	c #C3C3C3",
"G.	c #C5C5C5",
"H.	c #C6C6C6",
"I.	c #C8C8C8",
"J.	c #C7C7C7",
"K.	c #C9C9C9",
"L.	c #CACACA",
"M.	c #CBCBCB",
"N.	c #CCCCCC",
"O.	c #CDCDCD",
"P.	c #CECECE",
"Q.	c #CFCFCF",
"R.	c #D0D0D0",
"S.	c #D1D1D1",
"T.	c #D2D2D2",
"U.	c #D3D3D3",
"V.	c #D4D4D4",
"W.	c #D5D5D5",
"X.	c #D6D6D6",
"Y.	c #D7D7D7",
"Z.	c #D8D8D8",
"`.	c #D9D9D9",
" +	c #5F5F5F",
".+	c #2B2B2B",
"++	c #505050",
"@+	c #585858",
"#+	c #656565",
"$+	c #686868",
"%+	c #6A6A6A",
"&+	c #707070",
"*+	c #777777",
"=+	c #7D7D7D",
"-+	c #8A8A8A",
";+	c #8C8C8C",
">+	c #8E8E8E",
",+	c #959595",
"'+	c #A0A0A0",
")+	c #A4A4A4",
"!+	c #B1B1B1",
"~+	c #DADADA",
"{+	c #DBDBDB",
"]+	c #DDDDDD",
"^+	c #DEDEDE",
"/+	c #DFDFDF",
"(+	c #E1E1E1",
"_+	c #E2E2E2",
":+	c #E3E3E3",
"<+	c #E5E5E5",
"[+	c #E6E6E6",
"}+	c #E8E8E8",
"|+	c #E9E9E9",
"1+	c #EBEBEB",
"2+	c #ECECEC",
"3+	c #EDEDED",
"4+	c #EEEEEE",
"5+	c #EFEFEF",
"6+	c #F1F1F1",
"7+	c #F2F2F2",
"8+	c #F3F3F3",
"9+	c #F4F4F4",
"0+	c #F6F6F6",
"a+	c #F7F7F7",
"b+	c #F8F8F8",
"c+	c #F9F9F9",
"d+	c #FBFBFB",
"e+	c #FCFCFC",
"f+	c #FDFDFD",
"g+	c #FEFEFE",
"h+	c #1C1C1C",
"i+	c #212121",
"j+	c #4A4A4A",
"k+	c #535353",
"l+	c #767676",
"m+	c #7A7A7A",
"n+	c #808080",
"o+	c #868686",
"p+	c #A6A6A6",
"q+	c #C4C4C4",
"r+	c #DCDCDC",
"s+	c #E0E0E0",
"t+	c #E4E4E4",
"u+	c #E7E7E7",
"v+	c #EAEAEA",
"w+	c #F0F0F0",
"x+	c #F5F5F5",
"y+	c #FAFAFA",
"z+	c #5C5C5C",
"A+	c #616161",
"B+	c #9C9C9C",
"C+	c #B5B5B5",
"D+	c #262626",
"E+	c #838383",
"F+	c #464646",
"G+	c #B7B7B7",
"                                                                                                                                                                                                                                                                                                                                                                                                                                                            . + @ # ",
"  $ % % % % % % % % % & & & & & & & & & & & & & & * * * * * * * * * * = = = = = = = = = = - - - - - - - - - ; ; ; ; ; ; ; ; ; ; > > > > > > > > , , , , , , , , ' ' ' ' ' ' ' ) ) ) ) ) ) ) ! ! ! ! ! ! ! ! ! ~ ~ ~ ~ ~ ~ { { { { { { { ] ] ] ] ] ] ] ] ^ ^ ^ ^ ^ ^ ^ / / / / / / / ( ( ( ( ( ( ( _ _ _ _ _ _ _ _ : : : : : : : : < < < < < < < < < < < [ [ [ [ [ [ [ [ } } } } } } } } } } | | | | | | | | | | | 1 1 1 1 1 1 1 1 1 1 1 1 1 2 2 2 2 2 2 2 2 | ' 3 # ",
"  ~ 4 4 4 4 4 4 4 4 4 4 4 4 4 4 4 4 4 4 4 4 4 4 4 4 4 4 4 4 4 4 4 4 4 4 4 4 4 4 4 4 4 4 4 4 4 4 4 4 4 4 4 4 4 4 4 4 4 4 4 4 4 4 4 4 4 4 4 4 4 4 4 4 4 4 4 4 4 4 4 4 4 4 5 5 5 5 5 6 6 6 6 6 7 7 7 7 7 8 8 8 8 8 9 9 9 9 0 0 0 0 0 a a a a a a b b b b c c c c c d d d d d e e e e e f f f f g g g g g h h h h h i i i i i i j j j j j k k k k k k k l l l l l m m m m m m m m n n n n n n o o o o o o o o p p p p p p p q q q q q q q q q r r r r r r r r r o 4 s # ",
"  > 4 4 4 4 4 4 4 4 5 7 7 8 8 9 0 0 0 a b c d e e f g g h i k l l l m o p p q r t u v w x x x y z A B C D E F G G G H 2 2 1 } [ [ < : ( ^ ^ ] ~ ) ' ' , > - * * & % I J K L M N O P Q R S T U V W X Y Z ` `  ...+.@.$ #.$.$.%.&.*.s =.-.;.>.,.'.).!.~.~.{.+ ].^.^./.(._.:.:..   <.[.}.|.1.2.3.4.5.6.7.8.9.0.a.3 b.b.c.d.e.f.f.g.h.i.j.k.l.m.n.o.p.p.q.q.r.s.t.u.u.u.v.w.x.y.z.A.B.@ C.D.E.E.F.G.H.H.I.I.J.K.L.M.N.O.O.P.P.Q.R.S.T.T.U.V.V.V.W.X.X.Y.Y.Z.`.`.G.l  +# ",
"  ; 4 4 5 5 6 7 7 8 8 0 a b b c d e e g h h i k l m n n o p r t u u v x y y z A B C D E F G H .+1 | } < : ( / ] ] ] ~ ) ) ' > ; = * & I J J L M P Q ++R S T W @+X Y Z `  +..+.$ #+$.$+%+&.s -.&+>.'.).*+~.~.{.=+^./.(._.:.. <.-+;+>+|.1.4.5.,+7.9.a.3 b.'+d.f.)+g.h.i.k.m.n.p.!+r.t.u.v.x.y.z.B.@ E.E.F.G.J.K.L.M.N.P.Q.S.T.V.W.Y.`.~+{+]+^+/+(+(+(+_+:+<+[+}+|+1+2+3+4+5+6+7+8+9+0+a+b+c+d+e+f+g+# # # # # # # # # # # # # # # # # # # # # # # # # # # # # g+t Z # ",
"  ; 4 4 4 5 6 7 7 8 8 9 0 a a b c d e f g g h i j k l m n o o p r r t v h+h+x y z i+A B C D E F H H .+1 | } [ : _ _ ( / ^ ] ~ ! ) ' , ; = = & I J K L j+M O Q ++R k+T U W @+Y Z `  +....+.@.#+#.$+%+&.*.=.-.;.,.'.l+*+~.m++ =+].n+/.(._.o+.   -+;+>+|.2.3.4.,+6.7.9.0.a.3 c.'+e.f.g.p+i.k.l.l.n.p.!+!+r.t.u.v.v.w.x.z.A.@ C.E.F.q+H.J.I.L.M.N.P.P.P.Q.R.S.T.V.W.X.Z.`.~+{+r+]+^+/+s+_+:+t+<+[+u+}+|+v+1+2+3+3+5+w+6+7+8+9+9+x+0+a+a+b+c+y+d+d+d+e+f+g+g+# # }+q ` # ",
"  ; 4 4 4 4 5 6 7 8 9 9 0 a a b c d e f g g h h j k l m n o o p r r t v h+h+x y z i+A B C D E F G H .+1 | } [ : _ _ _ / ^ ] ~ ! ) , > ; - & % I J K L M N O P Q R k+T U W @+Y Z z+ ...A++.@.#+$.$+%+&.*.=.&+>.,.'.l+*+~.m+{.=+].n+/.(._.o+.   -+;+}.>+2.3.4.,+6.7.9.0.B+b.c.'+e.f.g.p+h.j.k.m.o.p.q.r.s.t.C+u.v.x.z.z.A.@ C.E.F.q+H.J.I.L.M.N.O.P.P.Q.S.T.U.V.X.Y.Y.Z.~+r+r+]+/+s+(+_+:+t+t+<+u+}+|+v+v+2+3+4+5+w+6+6+7+8+8+9+0+a+a+b+b+y+d+d+d+e+f+f+g+# # }+q ` # ",
"  ; 4 4 4 4 5 6 7 8 9 9 0 a a b c d e e f g h h j k l m n o o p r r t v h+h+x y z i+A C D D+E F G H .+1 } } [ < : : ( ^ ^ ] ~ ! ) , > > - & % I J K L M N N P Q R k+T U V @+Y Z z+ ...+.@.$ #+$.$.%+&.*.=.&+;.,.).l+*+~.m++ ].].^./.E+_.o+.   -+;+}.>+2.3.4.,+7.8.9.0.B+b.c.'+e.f.g.p+h.j.k.m.o.p.!+r.s.t.C+u.v.x.y.z.B.C.D.E.F.G.H.J.I.L.M.N.O.Q.Q.Q.S.T.U.V.X.Y.Y.Z.~+r+]+^+/+s+(+_+:+<+t+<+}+}+|+1+v+1+3+4+4+5+w+7+7+8+8+9+0+a+a+b+b+y+d+d+d+e+f+f+g+# # }+q ` # ",
"  ; 4 4 4 5 6 7 7 8 8 9 0 a a b c d e e f g h h j k l l m n o p r r t v h+h+x y z i+A C D D+E F G H .+1 } } [ < : : ( ^ ^ ] ~ ! ) ' , > - & % I F+J L M M N P ++R k+T U V @+Y Z z+ ...+.@.$ #+#.$.%.&.*.=.-.&+>.).l+*+~.m++ ].].^./.E+_.o+.   -+[.}.|.2.3.4.,+7.8.9.0.B+b.c.'+e.f.g.p+h.j.k.m.n.p.!+!+r.t.u.G+v.w.x.z.B.C.D.D.F.G.H.J.I.K.L.N.P.Q.Q.Q.R.S.U.V.X.Y.Z.`.~+r+]+^+/+s+(+_+:+<+<+[+}+}+|+1+1+1+3+4+4+5+w+7+7+8+8+9+0+a+a+b+c+y+y+d+d+e+f+f+g+# # }+q ` # ",
"  ; 4 4 4 5 6 7 7 8 9 9 9 0 b b c c d f g g h i j k l l m n o p r r t v h+h+x y z i+A B C D E F G H .+1 | } [ : _ _ _ / ] { ~ ! ) , > ; = * % I F+J L j+M O Q ++++S T U W @+Y Z z+ . +A++.@.#+$.$+%.&.s -.&+;.>.'.).l+!.m+{.=+^.n+/.(._.o+.   -+[.}.|.2.3.4.,+6.7.9.a.B+b.c.'+e.f.g.p+i.k.l.m.n.o.q.!+s.C+u.G+v.w.x.z.B.C.D.D.F.q+H.J.I.K.L.N.P.P.P.Q.R.T.T.U.W.X.Z.`.~+{+r+]+/+s+(+(+_+t+[+[+u+u+}+v+1+2+3+4+5+w+6+6+7+9+9+9+0+a+a+b+c+c+y+d+d+e+f+f+g+# # }+q ` # ",
"  ; 4 4 4 5 6 7 7 8 9 9 0 a b c d d e g g h i k l m n n o p r r u u v x y y z A C C D D+E F .+2 1 } [ < : _ / ^ ] ] { ! ' , > ; = * & % J K j+M N P ++R k+T W @+@+Y z+`  +..+.@.#+$.$+%+&.*.=.&+>.,.).*+~.m++ =+].n+(._.:.o+<.[.;+>+|.1.4.5.,+7.9.0.B+b.c.d.f.)+p+i.k.l.m.n.p.!+r.t.u.G+w.y.z.A.B.C.E.q+G.H.I.L.M.N.P.R.S.U.V.X.Y.`.~+{+r+]+/+(+(+(+_+t+[+[+u+|+1+2+3+4+5+6+7+8+9+0+0+a+c+y+d+f+g+g+# # # # # # # # # # # # # # # # # # # # # # # # # # # # g+t Z # ",
"o+' 4 4 4 4 4 4 4 4 4 4 5 6 6 7 7 8 8 9 9 a b c c d e f f g i i i j k m n o o p r r t u v v w x y i+A A A B D D+E E F H H .+1 | | } [ < _ ( ^ ] ] ~ ! ' , > - - = & % I I J K L N N O Q ++R S k+U W @+@+Y Z `  + ...+.$ #+#+$.%.%+&.*.s -.;.;.>.'.).*+*+!.m++ =+].n+/.(.(.E+:..   <.-+[.}.|.|.1.2.4.,+,+6.7.9.a.B+B+3 c.'+d.f.)+g.p+h.i.i.j.k.m.n.n.o.p.q.!+r.t.t.t.u.G+v.w.x.x.y.z.A.B.C.@ C.F.q+q+G.G.H.J.I.I.K.L.N.N.N.N.O.Q.R.R.S.T.T.T.U.V.V.W.W.X.Y.Y.F.i  .# ",
"].} 4 4 4 4 4 4 4 4 4 4 4 4 4 4 4 4 4 4 4 4 4 4 4 4 4 4 4 4 4 4 4 4 4 4 4 4 4 4 4 4 4 4 4 4 4 4 4 4 4 4 4 4 4 4 4 4 4 4 4 4 4 4 4 4 4 4 4 4 4 4 4 4 4 4 4 4 4 4 4 4 4 4 4 4 4 4 4 4 4 4 4 4 4 4 4 4 4 4 4 4 4 4 4 4 4 4 4 4 4 4 4 4 4 4 4 4 4 4 4 4 4 4 4 4 4 4 4 4 4 4 4 4 5 5 5 5 6 6 6 6 6 6 7 7 7 7 7 8 8 8 8 8 9 9 9 9 0 0 0 0 0 0 0 a a a a a a b b b b b b b c c c c c c d d d d d d d e e e e e e f f f f f f f f f g g g g g g g g g h h h h h h h e 4 $+# ",
"q+c.n+n+n+^.^.^.^.^.^.^.^.^.^.^.^.^.^.].].].].].].].].].].].=+=+=+=+=+=+=+=+=+=++ + + + + + + + + {.{.{.{.{.{.{.{.{.{.m+m+m+m+m+m+m+m+m+m+~.~.~.~.~.~.!.!.!.!.!.!.!.!.!.*+*+*+*+*+*+*+l+l+l+l+l+l+l+).).).).).).).).'.'.'.'.'.'.'.,.,.,.,.,.,.,.>.>.>.>.>.>.>.;.;.;.;.;.;.;.;.&+&+&+&+&+&+-.-.-.-.-.-.-.-.-.=.=.=.=.=.=.=.=.s s s s s s s s *.*.*.*.*.*.*.*.*.&.&.&.&.&.&.&.&.&.&.&.%+%+%+%+%+%+%+%+%+%+%.%.%.%.%.%.%.%.%.%.%.$+$+$+$+$+$+$+$+$+$+$+$+$+$+$+%+=+A.# ",
"# # # # # # # # # # # # # # # # # # # # # # # # # # # # # # # # # # # # # # # # # # # # # # # # # # # # # # # # # # # # # # # # # # # # # # # # # # # # # # # # # # # # # # # # # # # # # # # # # # # # # # # # # # # # # # # # # # # # # # # # # # # # # # # # # # # # # # # # # # # # # # # # # # # # # # # # # # # # # # # # # # # # # # # # # # # # # # # # # # # # # # # # # # # # # # # # # # # # # # # # # # # # # # # # # # # # # # # # # # # # # # # # # # "};
